<?xml version="1.0" encoding="utf-8"?>
<!-- Generator: Adobe Illustrator 18.0.0, SVG Export Plug-In . SVG Version: 6.00 Build 0)  -->
<!DOCTYPE svg PUBLIC "-//W3C//DTD SVG 1.1//EN" "http://www.w3.org/Graphics/SVG/1.1/DTD/svg11.dtd">
<svg version="1.1" id="Calque_1" xmlns="http://www.w3.org/2000/svg" xmlns:xlink="http://www.w3.org/1999/xlink" x="0px" y="0px"
	 viewBox="0 0 234.2 84.1" enable-background="new 0 0 234.2 84.1" xml:space="preserve">
<g>
	<path d="M2.8,20.4c0.5-0.1,1.1-0.1,1.8-0.2c0.7-0.1,1.4-0.1,2.1-0.2c0.8,0,1.5-0.1,2.3-0.1c0.8,0,1.5,0,2.1,0
		c1.9,0,3.7,0.2,5.2,0.6c1.6,0.4,2.9,1.1,4,2.1c1.1,0.9,2,2.1,2.6,3.6c0.6,1.5,0.9,3.3,0.9,5.4c0,2-0.2,3.9-0.7,5.6
		c-0.5,1.7-1.3,3.1-2.3,4.3c-1.1,1.2-2.4,2.1-4.1,2.7s-3.7,1-6,1c-0.7,0-1.4,0-2.1,0c-0.7,0-1.4,0-2.1-0.1S5.1,45,4.5,45
		c-0.6,0-1.2-0.1-1.7-0.1V20.4z M7.5,42.5c0.2,0,0.3,0.1,0.6,0.1c0.2,0,0.4,0,0.7,0.1c0.2,0,0.5,0,0.7,0c0.2,0,0.4,0,0.5,0
		c1.4,0,2.6-0.1,3.6-0.3c1-0.2,1.8-0.5,2.5-1c0.4-0.3,0.7-0.6,1-1.1c0.3-0.4,0.6-1,0.8-1.7c0.2-0.7,0.4-1.6,0.6-2.7
		c0.1-1.1,0.2-2.4,0.2-3.9c0-1.9-0.2-3.5-0.7-4.8c-0.5-1.2-1.1-2.2-1.9-2.9c-0.8-0.7-1.7-1.2-2.7-1.5c-1-0.3-2.2-0.4-3.4-0.4
		c-0.2,0-0.4,0-0.6,0c-0.2,0-0.5,0-0.7,0c-0.2,0-0.5,0-0.7,0.1c-0.2,0-0.4,0-0.5,0.1V42.5z"/>
	<path d="M33.5,45h-4.8V20.2h4.8V45z"/>
	<path d="M58.3,45.1L41.7,27.7h-0.1c0,1.5,0.1,2.8,0.1,4c0,0.5,0,1,0,1.6c0,0.5,0,1,0,1.4c0,0.4,0,0.8,0,1.2c0,0.3,0,0.6,0,0.7V45
		H39V20.1h2.1l16.6,17.3c0-1.3,0-2.6-0.1-3.7c0-0.5,0-1,0-1.5c0-0.5,0-1,0-1.5c0-0.5,0-0.9,0-1.3c0-0.4,0-0.7,0-0.9v-8.2h2.8v24.9
		H58.3z"/>
	<path d="M65.9,20.4c0.5-0.1,1.1-0.1,1.8-0.2c0.7-0.1,1.4-0.1,2.1-0.2c0.8,0,1.5-0.1,2.3-0.1c0.8,0,1.5,0,2.1,0
		c1.9,0,3.7,0.2,5.2,0.6c1.6,0.4,2.9,1.1,4,2.1c1.1,0.9,2,2.1,2.6,3.6c0.6,1.5,0.9,3.3,0.9,5.4c0,2-0.2,3.9-0.7,5.6
		c-0.5,1.7-1.3,3.1-2.3,4.3c-1.1,1.2-2.4,2.1-4.1,2.7s-3.7,1-6,1c-0.7,0-1.4,0-2.1,0c-0.7,0-1.4,0-2.1-0.1s-1.4-0.1-2-0.1
		c-0.6,0-1.2-0.1-1.7-0.1V20.4z M70.7,42.5c0.2,0,0.3,0.1,0.6,0.1c0.2,0,0.4,0,0.7,0.1c0.2,0,0.5,0,0.7,0c0.2,0,0.4,0,0.5,0
		c1.4,0,2.6-0.1,3.6-0.3c1-0.2,1.8-0.5,2.5-1c0.4-0.3,0.7-0.6,1-1.1c0.3-0.4,0.6-1,0.8-1.7c0.2-0.7,0.4-1.6,0.6-2.7
		c0.1-1.1,0.2-2.4,0.2-3.9c0-1.9-0.2-3.5-0.7-4.8c-0.5-1.2-1.1-2.2-1.9-2.9c-0.8-0.7-1.7-1.2-2.7-1.5c-1-0.3-2.2-0.4-3.4-0.4
		c-0.2,0-0.4,0-0.6,0c-0.2,0-0.5,0-0.7,0c-0.2,0-0.5,0-0.7,0.1c-0.2,0-0.4,0-0.5,0.1V42.5z"/>
	<path d="M114.5,32.5c0,2-0.2,3.7-0.7,5.3c-0.5,1.6-1.2,2.9-2.2,4c-1,1.1-2.2,2-3.7,2.6c-1.5,0.6-3.2,0.9-5.2,0.9
		c-2,0-3.8-0.3-5.2-0.9c-1.5-0.6-2.6-1.5-3.6-2.6c-0.9-1.1-1.6-2.5-2-4c-0.4-1.6-0.7-3.3-0.7-5.3s0.2-3.7,0.7-5.2
		c0.4-1.5,1.1-2.9,2.1-4c0.9-1.1,2.1-1.9,3.6-2.5s3.2-0.9,5.2-0.9s3.7,0.3,5.2,0.9c1.5,0.6,2.7,1.4,3.7,2.5c1,1.1,1.7,2.4,2.2,4
		C114.2,28.9,114.5,30.6,114.5,32.5z M109.4,32.5c0-1.5-0.1-2.9-0.4-4.1c-0.3-1.2-0.7-2.2-1.2-3c-0.6-0.8-1.3-1.5-2.1-1.9
		c-0.9-0.4-1.9-0.7-3.1-0.7c-1,0-2,0.1-2.9,0.3c-0.9,0.2-1.6,0.5-2.1,1c-0.5,0.4-0.9,1.3-1.1,2.7s-0.4,3.3-0.4,5.7
		c0,1.5,0.1,2.8,0.3,4c0.2,1.2,0.6,2.3,1.1,3.1c0.5,0.9,1.2,1.6,2,2c0.8,0.5,1.9,0.7,3.1,0.7c1.3,0,2.3-0.1,3.1-0.3s1.5-0.5,2.1-0.9
		c0.3-0.2,0.5-0.5,0.7-1.1c0.2-0.5,0.4-1.2,0.5-2c0.1-0.8,0.2-1.6,0.3-2.6C109.4,34.5,109.4,33.5,109.4,32.5z"/>
	<path d="M138.6,45.1L122,27.7h-0.1c0,1.5,0.1,2.8,0.1,4c0,0.5,0,1,0,1.6c0,0.5,0,1,0,1.4c0,0.4,0,0.8,0,1.2c0,0.3,0,0.6,0,0.7V45
		h-2.8V20.1h2.1l16.6,17.3c0-1.3,0-2.6-0.1-3.7c0-0.5,0-1,0-1.5c0-0.5,0-1,0-1.5c0-0.5,0-0.9,0-1.3c0-0.4,0-0.7,0-0.9v-8.2h2.8v24.9
		H138.6z"/>
	<path d="M151,43.1c0,2.6-0.6,4.6-1.8,6.2c-1.2,1.5-3,2.7-5.3,3.5l-0.8-1.5c0.6-0.4,1.2-0.8,1.6-1.3c0.4-0.5,0.7-1,1-1.6
		c0.2-0.6,0.4-1.2,0.5-1.8c0.1-0.6,0.1-1.3,0.1-2V20.2h4.8V43.1z"/>
	<path d="M179.2,32.5c0,2-0.2,3.7-0.7,5.3c-0.5,1.6-1.2,2.9-2.2,4c-1,1.1-2.2,2-3.7,2.6c-1.5,0.6-3.2,0.9-5.2,0.9
		c-2,0-3.8-0.3-5.2-0.9c-1.5-0.6-2.6-1.5-3.6-2.6c-0.9-1.1-1.6-2.5-2-4c-0.4-1.6-0.7-3.3-0.7-5.3s0.2-3.7,0.7-5.2
		c0.4-1.5,1.1-2.9,2.1-4c0.9-1.1,2.1-1.9,3.6-2.5s3.2-0.9,5.2-0.9s3.7,0.3,5.2,0.9c1.5,0.6,2.7,1.4,3.7,2.5c1,1.1,1.7,2.4,2.2,4
		C179,28.9,179.2,30.6,179.2,32.5z M174.2,32.5c0-1.5-0.1-2.9-0.4-4.1c-0.3-1.2-0.7-2.2-1.2-3c-0.6-0.8-1.3-1.5-2.1-1.9
		c-0.9-0.4-1.9-0.7-3.1-0.7c-1,0-2,0.1-2.9,0.3c-0.9,0.2-1.6,0.5-2.1,1c-0.5,0.4-0.9,1.3-1.1,2.7s-0.4,3.3-0.4,5.7
		c0,1.5,0.1,2.8,0.3,4c0.2,1.2,0.6,2.3,1.1,3.1c0.5,0.9,1.2,1.6,2,2c0.8,0.5,1.9,0.7,3.1,0.7c1.3,0,2.3-0.1,3.1-0.3s1.5-0.5,2.1-0.9
		c0.3-0.2,0.5-0.5,0.7-1.1c0.2-0.5,0.4-1.2,0.5-2c0.1-0.8,0.2-1.6,0.3-2.6C174.1,34.5,174.2,33.5,174.2,32.5z"/>
	<path d="M203.3,45.1l-16.6-17.4h-0.1c0,1.5,0.1,2.8,0.1,4c0,0.5,0,1,0,1.6c0,0.5,0,1,0,1.4c0,0.4,0,0.8,0,1.2c0,0.3,0,0.6,0,0.7V45
		H184V20.1h2.1l16.6,17.3c0-1.3,0-2.6-0.1-3.7c0-0.5,0-1,0-1.5c0-0.5,0-1,0-1.5c0-0.5,0-0.9,0-1.3c0-0.4,0-0.7,0-0.9v-8.2h2.8v24.9
		H203.3z"/>
</g>
<g>
	<path d="M2.9,17V3H6v11.2h6V17H2.9z"/>
	<path d="M24.3,3v2.8h-7v2.9h6.3v2.7h-6.3v2.9h7.2V17H14.2V3H24.3z"/>
</g>
<g>
	<path d="M133.2,76.3c-0.2-0.9-0.3-1.8-0.2-2.7c0.1-1,0.3-1.9,0.7-2.9s0.9-1.8,1.6-2.7c0.7-0.8,1.5-1.6,2.5-2.1
		c-0.6-0.3-1.3-0.6-1.9-1c-0.6-0.4-1.1-0.7-1.6-1.2s-0.9-0.8-1.2-1.3s-0.6-0.9-0.7-1.4c-0.2-0.6-0.3-1.3-0.3-1.9
		c0-0.6,0.1-1.2,0.2-1.8c0.1-0.6,0.3-1.1,0.5-1.6c0.2-0.5,0.5-0.9,0.8-1.3c0.3-0.4,0.7-0.7,1.1-1c0.4-0.3,0.8-0.4,1.2-0.6
		c0.6-0.1,1.2-0.1,1.8,0c0.6,0.2,1.2,0.5,1.8,1s1.1,1.3,1.6,2.2s0.9,2.1,1.3,3.5c0.3,1,0.5,2,0.6,3c0.2,0.9,0.3,1.9,0.4,2.7
		c0.4,0.1,0.9,0.3,1.3,0.4c0.5,0.1,0.9,0.3,1.4,0.4c0.1,0,0.2,0.1,0.4,0.1s0.3,0.1,0.4,0.1c0.1,0,0.3,0.1,0.4,0.2s0.2,0.1,0.2,0.2
		c0,0.1,0,0.1,0,0.2c0,0.1-0.1,0.1-0.1,0.2c-0.1,0.1-0.1,0.1-0.2,0.2s-0.1,0.1-0.1,0.1c-0.1,0.1-0.2,0.1-0.4,0.2
		c-0.4,0.1-0.8,0.1-1.3,0.1c-0.5,0-1.1-0.1-1.7-0.2c0,1.2,0,2.4-0.2,3.5c-0.1,1.1-0.3,2-0.6,2.9c-0.3,0.9-0.6,1.7-0.9,2.4
		c-0.4,0.7-0.8,1.3-1.2,1.8c-0.4,0.5-0.9,0.9-1.4,1.3s-0.9,0.5-1.4,0.7c-0.5,0.1-1,0.1-1.5,0.1c-0.5-0.1-0.9-0.3-1.3-0.6
		c-0.4-0.3-0.8-0.8-1.1-1.3C133.6,77.8,133.4,77.1,133.2,76.3z M134.7,59.8c0.1,0.5,0.4,1,0.7,1.4c0.3,0.4,0.8,0.9,1.3,1.2
		c0.5,0.4,1.1,0.7,1.8,1.1s1.4,0.7,2.2,1c-0.1-0.9-0.3-1.8-0.5-2.8c-0.2-1-0.4-2-0.7-3.1c-0.2-0.7-0.4-1.4-0.6-1.9s-0.5-0.9-0.7-1.2
		c-0.2-0.3-0.5-0.5-0.7-0.5s-0.5-0.1-0.7,0c-0.2,0.1-0.5,0.2-0.7,0.4c-0.2,0.2-0.4,0.4-0.6,0.6c-0.2,0.3-0.3,0.5-0.5,0.9
		c-0.1,0.3-0.2,0.6-0.3,1c-0.1,0.3-0.1,0.7-0.1,1C134.6,59.2,134.6,59.5,134.7,59.8z M135.7,76.3c0.2,0.6,0.4,1.1,0.8,1.4
		s0.7,0.3,1.1,0.2c0.4-0.1,0.8-0.4,1.3-0.9c0.4-0.5,0.8-1.2,1.1-2.1c0.3-0.9,0.6-2,0.8-3.3c0.2-1.3,0.2-2.8,0.1-4.5l-0.4-0.1
		c-0.6,0.3-1.2,0.7-1.7,1.1c-0.5,0.5-1,1-1.3,1.5c-0.4,0.6-0.7,1.1-1,1.8s-0.5,1.2-0.6,1.8c-0.2,0.6-0.2,1.2-0.3,1.7
		C135.6,75.4,135.6,75.9,135.7,76.3z"/>
	<path d="M150.8,61.7c0.3,0.3,0.5,0.7,0.7,1.1c0.2,0.4,0.3,0.8,0.4,1.1s0.2,0.8,0.2,1.2c0,0.4,0,0.8-0.1,1.2
		c-0.1,0.4-0.2,0.8-0.3,1.1c-0.1,0.4-0.3,0.7-0.6,1s-0.5,0.6-0.8,0.8c-0.3,0.2-0.7,0.4-1,0.5c-0.6,0.1-1.1,0.1-1.5,0
		c-0.5-0.1-0.9-0.4-1.2-0.7s-0.7-0.7-0.9-1.2c-0.2-0.5-0.4-0.9-0.6-1.5c-0.2-0.7-0.2-1.4-0.2-2c0.1-0.7,0.2-1.3,0.5-1.8
		c0.3-0.5,0.7-1,1.2-1.4c0.5-0.4,1.1-0.7,1.8-0.9c0.6-0.2,1.2-0.2,1.8-0.2c0.6,0.1,1.1,0.2,1.7,0.4c0.5,0.2,1.1,0.4,1.6,0.7
		c0.5,0.3,1,0.6,1.4,1l0.2,1.4c-0.2-0.2-0.5-0.4-0.9-0.6c-0.4-0.2-0.7-0.4-1.1-0.5s-0.8-0.3-1.1-0.5c-0.4-0.1-0.7-0.3-1-0.4
		L150.8,61.7z M149.2,67.7c0.2-0.1,0.4-0.2,0.5-0.5c0.1-0.3,0.3-0.6,0.3-1c0.1-0.4,0.1-0.8,0.1-1.2c0-0.4-0.1-0.8-0.2-1.2
		c-0.1-0.3-0.2-0.6-0.3-0.8c-0.1-0.2-0.2-0.4-0.4-0.6c-0.1-0.2-0.3-0.3-0.5-0.3c-0.2-0.1-0.3-0.1-0.5,0c-0.3,0.1-0.5,0.2-0.7,0.5
		c-0.2,0.3-0.3,0.6-0.4,1c-0.1,0.4-0.1,0.8-0.1,1.2c0,0.4,0.1,0.9,0.2,1.2c0.1,0.3,0.2,0.5,0.3,0.7s0.2,0.4,0.4,0.5
		c0.2,0.1,0.3,0.2,0.5,0.3S148.9,67.8,149.2,67.7z"/>
	<path d="M156.8,61.4c0.2-0.4,0.4-0.8,0.6-1.3c0.2-0.5,0.5-0.9,0.7-1.3c0.3-0.4,0.5-0.8,0.8-1.1c0.3-0.3,0.6-0.5,0.9-0.6
		c0.1,0,0.2,0,0.3,0c0.1,0,0.2,0,0.3,0.1c0.1,0.1,0.2,0.1,0.3,0.3c0.1,0.1,0.2,0.3,0.2,0.5c0.1,0.4,0.2,0.9,0.1,1.3
		c0,0.4,0,0.9-0.1,1.3c0,0.4-0.1,0.9-0.1,1.3s0,0.9,0.2,1.4c0.1,0.3,0.2,0.4,0.3,0.6c0.1,0.1,0.2,0.2,0.4,0.2c0.2,0,0.3-0.1,0.5-0.2
		c0.2-0.1,0.3-0.2,0.4-0.4c0.1-0.1,0.3-0.3,0.4-0.5c0.1-0.2,0.3-0.3,0.4-0.5c0.3-0.4,0.5-0.9,0.7-1.4l0.8,2.5
		c-0.1,0.1-0.2,0.3-0.3,0.4c-0.1,0.2-0.3,0.4-0.5,0.6c-0.2,0.2-0.4,0.4-0.6,0.6c-0.2,0.2-0.4,0.4-0.6,0.6c-0.2,0.2-0.4,0.3-0.7,0.5
		c-0.2,0.1-0.5,0.2-0.7,0.3c-0.3,0.1-0.7,0.1-1,0s-0.6-0.3-0.8-0.5c-0.2-0.2-0.4-0.5-0.6-0.8c-0.2-0.3-0.3-0.6-0.4-0.9
		c-0.1-0.2-0.1-0.4-0.1-0.7c0-0.3,0-0.5,0-0.8c0-0.3,0-0.5,0.1-0.8c0-0.3,0.1-0.5,0.1-0.7s0.1-0.4,0.1-0.5c0-0.1,0.1-0.2,0.1-0.2
		l-0.2,0c-0.1,0.1-0.2,0.3-0.4,0.7c-0.2,0.3-0.4,0.8-0.6,1.3s-0.4,1.1-0.6,1.7c-0.2,0.6-0.4,1.3-0.5,1.9c-0.1,0.3-0.1,0.6-0.1,0.8
		c0,0.2-0.1,0.4-0.1,0.6c-0.1,0.2-0.1,0.3-0.2,0.4c-0.1,0.1-0.2,0.2-0.4,0.2c-0.2,0.1-0.4,0-0.5-0.1c-0.2-0.1-0.3-0.2-0.4-0.4
		c-0.1-0.2-0.2-0.4-0.3-0.6c-0.1-0.2-0.2-0.5-0.2-0.8c-0.1-0.4-0.2-1-0.4-1.7c-0.2-0.7-0.3-1.5-0.5-2.3c-0.2-0.8-0.3-1.7-0.5-2.7
		c-0.1-0.9-0.2-1.9-0.3-2.8c-0.1-0.9-0.1-1.9,0-2.7c0.1-0.9,0.2-1.7,0.4-2.4c0.2-0.7,0.5-1.3,0.9-1.8c0.4-0.5,0.9-0.8,1.6-1
		c0.3-0.1,0.6-0.1,0.9-0.1c0.2,0,0.5,0.1,0.6,0.3c0.2,0.1,0.3,0.3,0.4,0.6s0.2,0.5,0.3,0.8c0.1,0.5,0.2,1,0.2,1.6s0,1.2-0.1,1.9
		c-0.1,0.7-0.1,1.4-0.3,2.1c-0.1,0.7-0.2,1.4-0.4,2c-0.1,0.7-0.3,1.3-0.4,1.9c-0.1,0.6-0.3,1.1-0.4,1.6L156.8,61.4z M156.1,55.3
		c0.1-1.1,0.2-1.9,0.2-2.6c0-0.7,0-1.2-0.1-1.5c-0.1-0.5-0.2-0.7-0.4-0.7c-0.2,0-0.3,0.4-0.5,1s-0.4,1.5-0.5,2.6c0,0.4,0,0.8,0,1.2
		c0,0.4,0,0.8,0,1.2c0,0.4,0,0.8,0.1,1.1c0,0.4,0.1,0.7,0.1,1.1c0.1,0.8,0.2,1.5,0.3,2.3c0.1-0.4,0.1-0.9,0.2-1.4s0.2-1,0.2-1.5
		s0.2-1,0.2-1.4C156,56,156.1,55.7,156.1,55.3z"/>
	<path d="M164.2,63.7c-0.1-0.4-0.2-0.9-0.3-1.5s-0.2-1.1-0.2-1.7s-0.1-1.1-0.2-1.7c0-0.5-0.1-1-0.1-1.4c0-0.3,0.1-0.6,0.2-0.8
		s0.4-0.4,0.7-0.5s0.6,0,0.8,0.1c0.2,0.2,0.3,0.4,0.4,0.8c0,0.1,0,0.2,0.1,0.4c0,0.2,0,0.3,0.1,0.5c0,0.2,0,0.4,0.1,0.6
		c0,0.2,0,0.4,0.1,0.6c0,0.2,0,0.3,0,0.5c0,0.1,0,0.2,0,0.3l0.2,0c0-0.1,0.1-0.2,0.1-0.4c0-0.2,0.1-0.4,0.1-0.6
		c0.1-0.2,0.1-0.5,0.2-0.7s0.1-0.5,0.2-0.7s0.1-0.4,0.2-0.6c0-0.2,0.1-0.3,0.1-0.4c0.1-0.4,0.3-0.7,0.5-0.9c0.2-0.2,0.5-0.3,0.8-0.4
		c0.3-0.1,0.6,0,0.9,0.2s0.4,0.6,0.6,1c0,0.1,0,0.2,0,0.4c0,0.2,0,0.4,0,0.6c0,0.2,0,0.5,0,0.8c0,0.3,0,0.6,0.1,0.9
		c0,0.3,0.1,0.6,0.1,0.9c0,0.3,0.1,0.5,0.2,0.8c0.1,0.4,0.2,0.7,0.4,0.9c0.2,0.2,0.3,0.3,0.6,0.3c0.1,0,0.2-0.1,0.3-0.2
		c0.1-0.1,0.2-0.2,0.3-0.3c0.1-0.1,0.2-0.3,0.4-0.4c0.1-0.2,0.2-0.3,0.3-0.5c0.3-0.4,0.5-0.8,0.8-1.3l0.7,2.1l-0.4,0.5
		c-0.2,0.3-0.4,0.5-0.6,0.8c-0.2,0.3-0.5,0.5-0.7,0.7c-0.3,0.2-0.5,0.4-0.8,0.6c-0.3,0.2-0.6,0.3-1,0.4c-0.3,0.1-0.7-0.1-1.1-0.5
		c-0.4-0.4-0.7-1.1-0.9-2.1c-0.1-0.4-0.2-0.8-0.2-1.2s-0.1-0.9-0.2-1.5l-0.2,0l-1.2,5.6c-0.1,0.3-0.2,0.5-0.3,0.6
		c-0.1,0.1-0.3,0.2-0.5,0.3c-0.3,0.1-0.5,0.1-0.7,0s-0.3-0.2-0.5-0.4c-0.1-0.2-0.2-0.4-0.3-0.6C164.3,64.2,164.3,63.9,164.2,63.7z"
		/>
	<path d="M181.8,61.2c-0.6,0.2-1.1,0.2-1.6,0.1c-0.5-0.1-0.9-0.3-1.3-0.6c-0.4-0.3-0.7-0.6-1-1.1c-0.3-0.4-0.5-0.9-0.6-1.4
		c-0.1-0.4-0.2-0.7-0.2-1.1c0-0.4,0-0.8,0-1.2s0.1-0.8,0.3-1.2s0.3-0.8,0.5-1.1s0.5-0.6,0.8-0.9c0.3-0.2,0.7-0.4,1.1-0.5
		c0.4-0.1,0.7-0.1,1-0.1c0.3,0,0.6,0.1,0.9,0.3c0.3,0.1,0.5,0.3,0.7,0.6c0.2,0.3,0.3,0.6,0.4,0.9c0.1,0.4,0.1,0.8,0,1.2
		c-0.1,0.4-0.3,0.9-0.5,1.3c-0.3,0.4-0.6,0.8-1,1.2c-0.4,0.4-0.9,0.7-1.4,1c0.1,0.1,0.3,0.3,0.4,0.4c0.1,0.1,0.2,0.2,0.3,0.2
		c0.1,0,0.2,0.1,0.3,0.1c0.1,0,0.2,0,0.3,0c0.4-0.1,0.8-0.3,1.1-0.5c0.4-0.3,0.7-0.6,1.1-0.9c0.3-0.3,0.6-0.7,0.9-1
		c0.3-0.4,0.5-0.7,0.7-1l1.5,1c-0.4,0.7-0.9,1.4-1.4,2c-0.2,0.3-0.5,0.5-0.7,0.8c-0.3,0.3-0.6,0.5-0.9,0.7s-0.6,0.4-1,0.6
		C182.6,61,182.2,61.1,181.8,61.2z M179.4,57.1c0.2-0.1,0.5-0.2,0.7-0.4c0.2-0.2,0.4-0.4,0.6-0.6c0.2-0.2,0.3-0.5,0.4-0.7
		c0.1-0.3,0.1-0.5,0.1-0.7c-0.1-0.3-0.2-0.5-0.3-0.7c-0.2-0.2-0.3-0.2-0.5-0.2c-0.3,0.1-0.5,0.2-0.7,0.3c-0.2,0.2-0.3,0.3-0.4,0.5
		c-0.1,0.2-0.1,0.4-0.2,0.6c0,0.2,0,0.4,0,0.7s0,0.4,0.1,0.6S179.4,57,179.4,57.1z"/>
	<path d="M196.3,55.5c-0.4,0.5-0.7,0.9-1.1,1.3c-0.2,0.2-0.3,0.3-0.5,0.5c-0.2,0.2-0.3,0.3-0.5,0.4s-0.3,0.3-0.5,0.4
		c-0.2,0.1-0.3,0.2-0.5,0.2c-0.1,0-0.2,0-0.4,0c-0.2,0-0.4,0-0.6-0.1c-0.2-0.1-0.5-0.2-0.7-0.3c-0.3-0.2-0.5-0.4-0.8-0.7
		c-0.2,0.3-0.4,0.6-0.6,0.8s-0.4,0.5-0.7,0.7c-0.2,0.2-0.5,0.4-0.8,0.6s-0.5,0.3-0.8,0.4c-0.4,0.1-0.8,0.1-1.1,0
		c-0.3-0.1-0.7-0.3-0.9-0.5s-0.5-0.5-0.7-0.9s-0.3-0.7-0.4-1.1c-0.1-0.4-0.2-0.8-0.2-1.3c0-0.4,0-0.9,0.1-1.3
		c0.1-0.4,0.2-0.9,0.4-1.3c0.2-0.4,0.4-0.8,0.7-1.2c0.3-0.4,0.6-0.7,1-1s0.8-0.5,1.3-0.7c-0.2-0.8-0.3-1.6-0.4-2.4s-0.1-1.6-0.1-2.4
		c0-0.8,0.1-1.5,0.2-2.2c0.1-0.7,0.3-1.3,0.5-1.8c0.2-0.5,0.5-1,0.8-1.3c0.3-0.3,0.7-0.6,1.1-0.7c0.3-0.1,0.6-0.1,0.8,0
		c0.2,0.1,0.5,0.3,0.7,0.5c0.2,0.2,0.4,0.5,0.5,0.8c0.1,0.3,0.3,0.7,0.4,1c0.1,0.2,0.1,0.5,0.1,0.7c0.1,0.9,0.2,1.8,0.2,2.6
		s-0.1,1.7-0.2,2.5s-0.2,1.7-0.4,2.5s-0.3,1.7-0.4,2.6c0,0.1,0,0.2,0,0.3c0,0.1,0,0.3,0,0.4c0,0.2,0,0.3,0,0.5c0,0.2,0,0.3,0.1,0.5
		c0,0.2,0.1,0.4,0.2,0.5s0.1,0.3,0.2,0.4c0.1,0.1,0.2,0.2,0.3,0.3s0.2,0.1,0.3,0c0.1,0,0.2-0.1,0.4-0.2c0.1-0.1,0.3-0.2,0.4-0.3
		c0.1-0.1,0.3-0.3,0.4-0.4c0.1-0.1,0.3-0.3,0.4-0.4c0.3-0.3,0.6-0.7,0.9-1.1L196.3,55.5z M188.4,51.9c-0.4,0.3-0.7,0.7-0.9,1.1
		c-0.2,0.4-0.4,0.8-0.5,1.3c-0.1,0.4-0.2,0.9-0.2,1.3c0,0.4,0,0.8,0.1,1.1c0,0.1,0.1,0.2,0.1,0.4c0.1,0.1,0.1,0.2,0.2,0.3
		c0.1,0.1,0.2,0.1,0.4,0.2s0.3,0,0.6,0c0.1,0,0.2-0.1,0.3-0.2c0.1-0.1,0.2-0.2,0.3-0.3c0.1-0.1,0.1-0.2,0.2-0.4
		c0.1-0.1,0.1-0.3,0.2-0.4c0.1-0.3,0.2-0.7,0.2-1.1c0-0.1-0.1-0.2-0.2-0.4c-0.1-0.2-0.1-0.4-0.2-0.6c-0.1-0.2-0.1-0.5-0.2-0.7
		c-0.1-0.3-0.1-0.5-0.2-0.7s-0.1-0.4-0.1-0.5C188.4,52,188.4,51.9,188.4,51.9z M191.1,43.9c-0.1-0.5-0.1-0.8-0.2-1.1
		c-0.1-0.3-0.2-0.6-0.3-0.7c-0.1-0.1-0.2-0.2-0.3-0.1c-0.2,0.1-0.4,0.2-0.5,0.5c-0.1,0.3-0.2,0.7-0.2,1.1c0,0.4,0,0.9,0,1.4
		s0.1,1,0.1,1.5c0.1,0.5,0.1,0.9,0.2,1.2s0.1,0.6,0.1,0.8c0.1,0.3,0.1,0.6,0.2,0.9c0.1,0.3,0.1,0.6,0.2,0.8c0.1,0.2,0.1,0.4,0.2,0.6
		c0,0.2,0.1,0.3,0.1,0.4l0,0.1c0.1-0.9,0.3-1.8,0.4-2.7c0-0.4,0.1-0.8,0.1-1.2s0.1-0.8,0.1-1.2c0-0.4,0-0.8,0-1.2
		C191.2,44.6,191.1,44.3,191.1,43.9z"/>
	<path d="M194.7,45.4c0-0.1,0-0.3,0-0.5c0-0.2,0.1-0.4,0.2-0.6c0.1-0.2,0.3-0.4,0.5-0.6s0.5-0.3,0.8-0.4c0.2-0.1,0.4-0.1,0.6-0.1
		s0.4,0,0.6,0.1c0.2,0.1,0.3,0.2,0.5,0.3c0.1,0.1,0.2,0.3,0.3,0.6c0.1,0.2,0.1,0.4,0.1,0.7s-0.1,0.4-0.2,0.6
		c-0.1,0.2-0.3,0.4-0.5,0.5s-0.5,0.3-0.8,0.4c-0.6,0.1-1,0.1-1.3-0.1C195.1,46.2,194.8,45.8,194.7,45.4z M201.5,54
		c-0.2,0.3-0.4,0.6-0.7,0.9c-0.3,0.3-0.6,0.6-0.9,0.9c-0.3,0.3-0.7,0.6-1.1,0.8c-0.4,0.2-0.7,0.4-1.1,0.5c-0.3,0.1-0.6,0.1-0.9,0.1
		s-0.5-0.1-0.6-0.2c-0.2-0.1-0.3-0.3-0.5-0.5c-0.1-0.2-0.2-0.5-0.3-0.8c-0.1-0.4-0.2-0.9-0.2-1.4c0-0.6-0.1-1.1-0.1-1.7
		c0-0.6,0-1.2,0-1.8c0-0.6,0-1.1,0-1.7c0-0.2,0.1-0.3,0.2-0.5c0.1-0.2,0.2-0.3,0.4-0.4c0.1-0.1,0.3-0.2,0.5-0.3s0.3-0.1,0.5-0.2
		c0.3-0.1,0.5-0.1,0.6,0c0.1,0.1,0.2,0.2,0.2,0.4c0,0.1,0.1,0.3,0.1,0.6c0,0.3,0,0.6,0,1c0,0.4,0,0.7,0,1.1s0,0.8,0,1.2
		c0,0.4,0,0.8,0,1.2c0,0.4,0.1,0.7,0.2,1c0.1,0.3,0.2,0.5,0.3,0.7c0.1,0.2,0.3,0.2,0.5,0.2c0.2-0.1,0.5-0.2,0.7-0.4
		c0.2-0.2,0.5-0.5,0.7-0.8c0.2-0.3,0.4-0.6,0.7-0.9c0.2-0.3,0.4-0.6,0.6-0.8L201.5,54z"/>
	<path d="M208.6,52.1c-0.5,0.5-1,1-1.4,1.3c-0.4,0.4-0.8,0.7-1.1,1c-0.3,0.3-0.6,0.5-0.9,0.7c-0.3,0.2-0.5,0.3-0.7,0.3
		c-0.5,0.1-0.9,0.1-1.4-0.1c-0.4-0.2-0.9-0.5-1.2-1c-0.4-0.5-0.7-1.1-1.1-1.8c-0.3-0.7-0.6-1.6-0.9-2.6c-0.1-0.4-0.2-0.8-0.3-1.2
		c-0.1-0.4-0.1-0.9-0.2-1.3c-0.2,0-0.3,0-0.5,0c-0.1,0-0.2,0-0.3,0c-0.1,0-0.3,0-0.5,0c-0.2,0-0.5,0.1-0.8,0.1c-0.2,0-0.3,0-0.4,0
		c-0.1,0-0.2-0.1-0.2-0.1c-0.1-0.1-0.1-0.1-0.1-0.2c0-0.1,0-0.1-0.1-0.2c0-0.1,0-0.2,0.1-0.3c0.1-0.1,0.3-0.2,0.4-0.3
		c0.2-0.1,0.4-0.2,0.6-0.2c0.2-0.1,0.4-0.1,0.7-0.2c0.2,0,0.4-0.1,0.6-0.1c0.2,0,0.3-0.1,0.3-0.1c0-0.9,0-1.8,0-2.6
		c0.1-0.9,0.2-1.6,0.3-2.4s0.4-1.3,0.7-1.8c0.3-0.5,0.6-0.8,1.1-0.9c0.3-0.1,0.5-0.1,0.8,0c0.3,0.1,0.5,0.2,0.7,0.5
		c0.2,0.2,0.4,0.5,0.6,0.8c0.2,0.3,0.3,0.7,0.4,1c0.1,0.3,0.1,0.6,0.1,1c0,0.4,0,0.7-0.1,1.1c-0.1,0.4-0.1,0.8-0.3,1.2
		c-0.1,0.4-0.2,0.8-0.4,1.3c0.1,0,0.2,0,0.3-0.1c0.1,0,0.3-0.1,0.5-0.1c0.2,0,0.4-0.1,0.6-0.1c0.2,0,0.4-0.1,0.6-0.1
		c0.2,0,0.4-0.1,0.5-0.1c0.2,0,0.3-0.1,0.4-0.1c0.1,0,0.2,0,0.3,0.1c0.1,0.1,0.2,0.2,0.2,0.4c0.1,0.2,0,0.4-0.1,0.6
		c-0.1,0.2-0.2,0.3-0.4,0.3l-3.6,0.9c-0.1,0.3-0.2,0.6-0.4,0.9c-0.1,0.3-0.2,0.6-0.3,0.8c0.1,0.4,0.2,0.8,0.2,1.2
		c0,0.2,0.1,0.3,0.1,0.5c0,0.2,0.1,0.3,0.1,0.5c0,0.2,0.1,0.3,0.1,0.5c0,0.2,0.1,0.3,0.1,0.4c0.1,0.3,0.2,0.6,0.3,0.8
		s0.3,0.4,0.4,0.5c0.2,0.1,0.3,0.2,0.5,0.2c0.2,0,0.4,0,0.6-0.1c0.1,0,0.3-0.1,0.5-0.2s0.4-0.3,0.6-0.4c0.2-0.2,0.4-0.4,0.6-0.6
		c0.2-0.2,0.4-0.5,0.6-0.7c0.2-0.2,0.4-0.5,0.6-0.8c0.2-0.3,0.3-0.5,0.5-0.8L208.6,52.1z M202.5,40.9c0-0.1,0-0.1-0.1-0.2
		c0-0.1-0.1-0.2-0.1-0.2c-0.1-0.1-0.1-0.1-0.2-0.2s-0.2,0-0.3,0c-0.2,0-0.3,0.2-0.4,0.6c-0.1,0.3-0.2,0.7-0.2,1.2
		c0,0.5-0.1,1-0.1,1.6c0,0.6,0,1.1,0,1.7c0.1,0,0.2,0,0.3,0c0.1,0,0.2,0,0.3,0c0.1-0.4,0.2-0.8,0.3-1.2c0.1-0.4,0.2-0.8,0.3-1.2
		s0.1-0.8,0.1-1.1C202.6,41.4,202.6,41.1,202.5,40.9z"/>
	<path d="M207.4,42.2c0-0.1,0-0.3,0-0.5c0-0.2,0.1-0.4,0.2-0.6c0.1-0.2,0.3-0.4,0.5-0.6s0.5-0.3,0.8-0.4c0.2-0.1,0.4-0.1,0.6-0.1
		c0.2,0,0.4,0,0.6,0.1c0.2,0.1,0.3,0.2,0.5,0.3c0.1,0.1,0.2,0.3,0.3,0.6c0.1,0.2,0.1,0.4,0.1,0.7c0,0.2-0.1,0.4-0.2,0.6
		c-0.1,0.2-0.3,0.4-0.5,0.5c-0.2,0.2-0.5,0.3-0.8,0.4c-0.6,0.1-1,0.1-1.3-0.1S207.5,42.6,207.4,42.2z M214.1,50.8
		c-0.2,0.3-0.4,0.6-0.7,0.9s-0.6,0.6-0.9,0.9c-0.3,0.3-0.7,0.6-1.1,0.8c-0.4,0.2-0.7,0.4-1.1,0.5c-0.3,0.1-0.6,0.1-0.9,0.1
		c-0.2,0-0.5-0.1-0.6-0.2c-0.2-0.1-0.3-0.3-0.5-0.5c-0.1-0.2-0.2-0.5-0.3-0.8c-0.1-0.4-0.2-0.9-0.2-1.4s-0.1-1.1-0.1-1.7
		c0-0.6,0-1.2,0-1.8c0-0.6,0-1.1,0-1.7c0-0.2,0.1-0.3,0.2-0.5s0.2-0.3,0.4-0.4c0.1-0.1,0.3-0.2,0.5-0.3c0.2-0.1,0.3-0.1,0.5-0.2
		c0.3-0.1,0.5-0.1,0.6,0c0.1,0.1,0.2,0.2,0.2,0.4c0,0.1,0.1,0.3,0.1,0.6s0,0.6,0,1s0,0.7,0,1.1c0,0.4,0,0.8,0,1.2s0,0.8,0.1,1.2
		c0,0.4,0.1,0.7,0.2,1c0.1,0.3,0.2,0.5,0.3,0.7c0.1,0.2,0.3,0.2,0.5,0.2c0.2-0.1,0.5-0.2,0.7-0.4c0.2-0.2,0.5-0.5,0.7-0.8
		c0.2-0.3,0.4-0.6,0.7-0.9c0.2-0.3,0.4-0.6,0.6-0.8L214.1,50.8z"/>
	<path d="M217.9,44.4c0.3,0.3,0.5,0.7,0.7,1.1c0.2,0.4,0.3,0.8,0.4,1.1s0.2,0.8,0.2,1.2c0,0.4,0,0.8-0.1,1.2
		c-0.1,0.4-0.2,0.8-0.3,1.1c-0.1,0.4-0.3,0.7-0.6,1s-0.5,0.6-0.8,0.8c-0.3,0.2-0.7,0.4-1,0.5c-0.6,0.1-1.1,0.1-1.5,0
		c-0.5-0.1-0.9-0.4-1.2-0.7s-0.7-0.7-0.9-1.2c-0.2-0.5-0.4-0.9-0.6-1.4c-0.2-0.7-0.2-1.4-0.2-2s0.2-1.3,0.5-1.8
		c0.3-0.5,0.7-1,1.2-1.4c0.5-0.4,1.1-0.7,1.8-0.9c0.6-0.2,1.2-0.2,1.8-0.2c0.6,0.1,1.1,0.2,1.7,0.4c0.5,0.2,1.1,0.4,1.6,0.7
		c0.5,0.3,1,0.6,1.4,1l0.2,1.4c-0.2-0.2-0.5-0.4-0.9-0.6s-0.7-0.4-1.1-0.5s-0.8-0.3-1.1-0.5c-0.4-0.1-0.7-0.3-1-0.4L217.9,44.4z
		 M216.4,50.4c0.2-0.1,0.4-0.2,0.5-0.5c0.1-0.3,0.3-0.6,0.3-1c0.1-0.4,0.1-0.8,0.1-1.2s-0.1-0.8-0.2-1.2c-0.1-0.3-0.2-0.6-0.3-0.8
		c-0.1-0.2-0.2-0.4-0.4-0.6c-0.1-0.2-0.3-0.3-0.5-0.3c-0.2-0.1-0.3-0.1-0.5,0c-0.3,0.1-0.5,0.2-0.7,0.5s-0.3,0.6-0.4,1
		c-0.1,0.4-0.1,0.8-0.1,1.2c0,0.4,0.1,0.9,0.2,1.2c0.1,0.3,0.2,0.5,0.3,0.7s0.2,0.4,0.4,0.5c0.2,0.1,0.3,0.2,0.5,0.3
		S216.1,50.5,216.4,50.4z"/>
	<path d="M221.7,48.9c-0.1-0.4-0.2-0.9-0.3-1.5c-0.1-0.6-0.2-1.1-0.2-1.7c-0.1-0.6-0.1-1.2-0.2-1.7c0-0.5-0.1-1-0.1-1.4
		c0-0.3,0.1-0.6,0.2-0.8c0.1-0.2,0.4-0.4,0.7-0.5c0.3-0.1,0.6,0,0.8,0.1c0.2,0.2,0.3,0.4,0.4,0.8c0,0.1,0,0.2,0.1,0.4
		c0,0.2,0,0.3,0.1,0.5c0,0.2,0,0.4,0.1,0.6c0,0.2,0,0.4,0.1,0.6c0,0.2,0,0.3,0,0.5c0,0.1,0,0.2,0,0.3l0.2,0c0-0.1,0.1-0.2,0.1-0.4
		c0-0.2,0.1-0.4,0.1-0.6s0.1-0.5,0.2-0.7c0.1-0.3,0.1-0.5,0.2-0.7s0.1-0.4,0.2-0.6c0-0.2,0.1-0.3,0.1-0.4c0.1-0.4,0.3-0.7,0.5-0.9
		c0.2-0.2,0.5-0.3,0.8-0.4c0.3-0.1,0.6,0,0.9,0.2s0.4,0.6,0.6,1c0,0.1,0,0.2,0,0.4c0,0.2,0,0.4,0,0.6s0,0.5,0,0.8
		c0,0.3,0,0.6,0.1,0.9s0.1,0.6,0.1,0.9s0.1,0.5,0.2,0.8c0.1,0.4,0.2,0.7,0.4,0.9c0.2,0.2,0.3,0.3,0.6,0.3c0.1,0,0.2-0.1,0.3-0.2
		c0.1-0.1,0.2-0.2,0.3-0.3c0.1-0.1,0.2-0.3,0.4-0.4c0.1-0.2,0.2-0.3,0.3-0.5c0.3-0.4,0.5-0.8,0.8-1.3l0.7,2.1l-0.4,0.5
		c-0.2,0.3-0.4,0.5-0.6,0.8c-0.2,0.3-0.5,0.5-0.7,0.7c-0.3,0.2-0.5,0.4-0.8,0.6c-0.3,0.2-0.6,0.3-1,0.4c-0.3,0.1-0.7-0.1-1.1-0.5
		s-0.7-1.1-0.9-2.1c-0.1-0.4-0.2-0.8-0.2-1.2s-0.1-0.9-0.2-1.5l-0.2,0l-1.2,5.6c-0.1,0.3-0.2,0.5-0.3,0.6c-0.1,0.1-0.3,0.2-0.5,0.3
		c-0.3,0.1-0.5,0.1-0.7,0c-0.2-0.1-0.3-0.2-0.5-0.4s-0.2-0.4-0.3-0.6S221.8,49.1,221.7,48.9z"/>
</g>
</svg>
